<?xml version="1.0" encoding="UTF-8" standalone="no"?>
<svg width="100px" height="70px" viewBox="0 0 100 70" version="1.1" xmlns="http://www.w3.org/2000/svg" xmlns:xlink="http://www.w3.org/1999/xlink" xmlns:sketch="http://www.bohemiancoding.com/sketch/ns">
    <!-- Generator: Sketch 3.3.3 (12072) - http://www.bohemiancoding.com/sketch -->
    <title>256</title>
    <desc>Created with Sketch.</desc>
    <defs></defs>
    <g id="Page-1" stroke="none" stroke-width="1" fill="none" fill-rule="evenodd" sketch:type="MSPage">
        <g id="256" sketch:type="MSArtboardGroup" fill="#FFFFFF">
            <path d="M65,40.3323077 C65,40.3323077 62.5,41.2246154 61.7857143,41.4030769 C61.0714286,41.5815385 60,42.1169231 59.2857143,42.2953846 C58.5714286,42.4738462 57.8571429,44.6153846 57.8571429,44.6153846 C57.8571429,44.6153846 58.5714286,45.3292308 59.2857143,45.6861538 C60,46.2215385 61.0714286,46.7569231 61.0714286,46.7569231 L57.5,48.3630769 L55.5357143,49.4338462 C55.5357143,49.4338462 54.1071429,50.5046154 54.1071429,46.7569231 L54.1071429,38.3692308 L54.1071429,28.0184615 L54.1071429,23.9138462 L56.9642857,22.1292308 L60.3571429,20.5230769 L64.6428571,18.7384615 L68.75,16.9538462 L70.1785714,14.6338462 C70.1785714,14.6338462 70.7142857,13.0276923 69.1071429,13.0276923 C67.5,13.0276923 65.7142857,12.8492308 64.6428571,13.2061538 C63.3928571,13.92 62.5,14.2769231 61.4285714,14.8123077 C60.3571429,15.5261538 57.8571429,16.24 56.9642857,16.5969231 C56.0714286,17.1323077 54.2857143,17.4892308 54.2857143,17.4892308 L53.3928571,16.7753846 C53.3928571,16.7753846 54.8214286,15.3476923 55.3571429,15.1692308 C56.0714286,14.9907692 57.3214286,14.6338462 58.0357143,14.0984615 C58.75,13.3846154 58.9285714,13.0276923 59.6428571,12.1353846 C60.3571429,11.2430769 60.5357143,11.0646154 60.5357143,9.28 C60.5357143,7.49538462 61.4285714,8.38769231 59.6428571,5.71076923 C57.8571429,3.03384615 56.0714286,1.24923077 54.4642857,1.07076923 C52.8571429,0.892307692 46.7857143,2.49846154 46.0714286,2.85538462 C45.3571429,3.39076923 44.1071429,5.53230769 44.1071429,6.60307692 L44.1071429,10.1723077 L45.8928571,13.5630769 L49.1071429,16.24 L49.1071429,18.56 L47.5,20.1661538 C47.5,20.1661538 46.0714286,20.7015385 45.1785714,21.0584615 C44.2857143,21.5938462 44.1071429,21.7723077 42.5,21.9507692 C40.8928571,22.1292308 34.4642857,23.0215385 34.4642857,23.0215385 C34.4642857,23.0215385 33.0357143,23.7353846 32.8571429,24.8061538 C32.6785714,25.8769231 32.6785714,27.3046154 32.6785714,27.3046154 C32.6785714,27.3046154 33.3928571,27.84 34.4642857,28.1969231 C35.5357143,28.7323077 36.7857143,29.2676923 37.6785714,28.9107692 C38.5714286,28.3753846 39.4642857,28.0184615 40.8928571,27.84 C42.3214286,27.6615385 47.1428571,24.6276923 47.1428571,24.6276923 L47.1428571,27.84 L47.1428571,30.3384615 C47.1428571,31.0523077 47.8571429,36.9415385 47.8571429,36.9415385 C47.8571429,36.9415385 48.75,43.9015385 48.5714286,44.6153846 C48.3928571,45.3292308 47.6785714,47.8276923 47.6785714,47.8276923 L45.7142857,48.8984615 C45.7142857,48.8984615 45.5357143,49.4338462 44.2857143,49.4338462 C43.2142857,49.4338462 42.6785714,49.4338462 41.7857143,48.72 C40.8928571,48.0061538 40,47.8276923 39.8214286,46.9353846 C39.6428571,46.0430769 38.3928571,45.1507692 38.3928571,45.1507692 L39.2857143,43.5446154 L40.7142857,43.7230769 C40.7142857,43.7230769 41.6071429,42.6523077 40.5357143,41.2246154 C39.4642857,39.7969231 39.8214286,40.6892308 38.5714286,39.2615385 C37.1428571,37.6553846 34.8214286,35.8707692 34.1071429,35.5138462 C33.3928571,34.9784615 30.3571429,32.8369231 30.3571429,32.8369231 L30.3571429,39.44 C30.3571429,40.5107692 30.1785714,42.8307692 29.8214286,43.9015385 C29.6428571,44.9723077 29.6428571,47.1138462 29.6428571,47.1138462 C29.6428571,47.1138462 29.8214286,49.0769231 30.7142857,49.6123077 C31.6071429,50.1476923 33.0357143,51.04 33.3928571,50.1476923 C33.9285714,49.2553846 32.6785714,50.3261538 33.9285714,49.2553846 C35,48.1846154 36.25,49.9692308 36.25,49.9692308 C36.25,49.9692308 36.25,50.8615385 38.0357143,52.4676923 C39.8214286,54.0738462 42.5,55.1446154 43.0357143,56.0369231 C43.5714286,56.9292308 48.3928571,60.6769231 48.3928571,60.6769231 L50.1785714,61.7476923 C50.1785714,61.7476923 51.7857143,59.7846154 52.5,59.4276923 C53.2142857,59.2492308 55.1785714,58.3569231 56.25,57.6430769 C57.3214286,56.9292308 59.8214286,55.3230769 60.8928571,54.4307692 C61.9642857,53.5384615 63.3928571,52.1107692 63.3928571,52.1107692 C63.3928571,52.1107692 64.2857143,53.7169231 65,53.8953846 C65.7142857,54.0738462 66.4285714,54.6092308 67.5,53.36 C68.5714286,52.2892308 68.5714286,52.6461538 69.2857143,51.3969231 C70,49.9692308 70.1785714,50.3261538 70.1785714,48.1846154 C70.1785714,46.2215385 70.3571429,39.2615385 70.3571429,39.2615385 L70.8928571,36.0492308 L65,40.3323077 L65,40.3323077 Z M51.25,11.0646154 L50.1785714,10.1723077 C50.1785714,10.1723077 50,9.28 50,8.56615385 C50,7.85230769 51.4285714,7.13846154 51.4285714,7.13846154 C52.1428571,7.31692308 53.9285714,8.03076923 53.9285714,8.03076923 L53.9285714,9.81538462 C53.9285714,10.5292308 52.8571429,10.8861538 52.8571429,10.8861538 L51.25,10.8861538 L51.25,11.0646154 Z" id="Shape" sketch:type="MSShapeGroup"></path>
            <path d="M32.8571429,60.32 L30.5357143,58.5353846 L25.3571429,54.6092308 L22.1428571,52.2892308 L19.4642857,50.6830769 C19.4642857,50.6830769 20.1785714,50.1476923 21.0714286,49.9692308 L21.9642857,49.7907692 C21.9642857,49.7907692 23.0357143,48.8984615 22.5,48.5415385 C21.9642857,48.1846154 21.4285714,48.0061538 20.5357143,47.1138462 C19.6428571,46.2215385 11.25,38.5476923 10.7142857,38.1907692 C10.3571429,38.0123077 9.64285714,37.2984615 9.10714286,36.7630769 L8.92857143,38.5476923 C8.92857143,38.5476923 8.92857143,39.2615385 8.39285714,39.0830769 L7.67857143,37.4769231 C7.67857143,37.4769231 7.67857143,36.5846154 7.32142857,36.0492308 C6.96428571,35.6923077 6.25,34.2646154 6.25,34.2646154 C6.25,34.2646154 4.82142857,33.3723077 5.53571429,33.1938462 C6.25,33.0153846 6.96428571,33.1938462 7.85714286,33.3723077 C8.57142857,33.5507692 8.39285714,33.7292308 9.28571429,33.7292308 C10.1785714,33.7292308 10.8928571,33.9076923 10.8928571,33.9076923 C10.8928571,33.9076923 12.3214286,33.7292308 11.7857143,34.4430769 C11.4285714,34.9784615 10.5357143,35.1569231 9.82142857,35.3353846 C11.7857143,37.2984615 20.7142857,45.8646154 21.0714286,46.2215385 C21.6071429,46.5784615 24.2857143,48.5415385 24.2857143,48.5415385 L25.7142857,50.1476923 L22.8571429,50.5046154 L22.8571429,51.5753846 C22.8571429,51.5753846 24.8214286,52.6461538 26.0714286,53.7169231 C27.3214286,54.6092308 31.6071429,58.3569231 31.6071429,58.3569231 C31.6071429,58.3569231 34.2857143,59.9630769 32.8571429,60.32 L32.8571429,60.32 Z" id="Shape" sketch:type="MSShapeGroup"></path>
            <path d="M36.6071429,69.2430769 L33.9285714,68.5292308 L27.6785714,66.3876923 L23.75,65.3169231 L20.7142857,64.6030769 C20.7142857,64.6030769 21.25,63.8892308 21.9642857,63.3538462 L22.8571429,62.8184615 C22.8571429,62.8184615 23.75,61.5692308 23.0357143,61.3907692 C22.3214286,61.2123077 21.9642857,61.2123077 20.7142857,60.6769231 C19.4642857,60.1415385 9.10714286,55.8584615 8.39285714,55.68 C8.03571429,55.68 7.14285714,55.3230769 6.42857143,54.9661538 L6.96428571,56.7507692 C6.96428571,56.7507692 7.14285714,57.4646154 6.60714286,57.4646154 L5.35714286,56.3938462 C5.35714286,56.3938462 5,55.5015385 4.64285714,55.3230769 C4.28571429,54.9661538 3.03571429,53.8953846 3.03571429,53.8953846 C3.03571429,53.8953846 1.25,53.36 1.78571429,53.0030769 C2.32142857,52.6461538 3.21428571,52.4676923 3.92857143,52.4676923 C4.64285714,52.4676923 4.46428571,52.6461538 5.35714286,52.2892308 C6.25,51.9323077 6.78571429,51.9323077 6.78571429,51.9323077 C6.78571429,51.9323077 8.03571429,51.2184615 7.85714286,52.1107692 C7.67857143,52.6461538 6.96428571,53.1815385 6.42857143,53.5384615 C8.92857143,54.6092308 20.1785714,59.9630769 20.7142857,60.1415385 C21.4285714,60.32 24.6428571,61.2123077 24.6428571,61.2123077 L26.4285714,62.2830769 L23.9285714,63.7107692 L24.2857143,64.7815385 C24.2857143,64.7815385 26.4285714,65.1384615 28.0357143,65.6738462 C29.4642857,66.2092308 34.8214286,68.1723077 34.8214286,68.1723077 C34.8214286,68.1723077 37.8571429,68.5292308 36.6071429,69.2430769 L36.6071429,69.2430769 Z" id="Shape" sketch:type="MSShapeGroup"></path>
            <path d="M68.5714286,60.32 L70.8928571,58.5353846 L76.0714286,54.6092308 L79.2857143,52.2892308 L81.9642857,50.6830769 C81.9642857,50.6830769 81.25,50.1476923 80.3571429,49.9692308 L79.4642857,49.7907692 C79.4642857,49.7907692 78.3928571,48.8984615 78.9285714,48.5415385 C79.4642857,48.1846154 80,48.0061538 80.8928571,47.1138462 C81.7857143,46.2215385 90.1785714,38.5476923 90.7142857,38.1907692 C91.0714286,38.0123077 91.7857143,37.2984615 92.3214286,36.7630769 L92.5,38.5476923 C92.5,38.5476923 92.5,39.2615385 93.0357143,39.0830769 L93.9285714,37.6553846 C93.9285714,37.6553846 93.9285714,36.7630769 94.2857143,36.2276923 C94.6428571,35.8707692 95.3571429,34.4430769 95.3571429,34.4430769 C95.3571429,34.4430769 96.7857143,33.5507692 96.0714286,33.3723077 C95.3571429,33.1938462 94.6428571,33.3723077 93.75,33.5507692 C93.0357143,33.7292308 93.2142857,33.9076923 92.3214286,33.9076923 C91.4285714,33.9076923 90.7142857,34.0861538 90.7142857,34.0861538 C90.7142857,34.0861538 89.2857143,33.9076923 89.8214286,34.6215385 C90.1785714,35.1569231 91.0714286,35.3353846 91.7857143,35.5138462 C89.8214286,37.4769231 80.8928571,46.0430769 80.5357143,46.4 C80,46.7569231 77.3214286,48.72 77.3214286,48.72 L75.8928571,50.3261538 L78.75,50.6830769 L78.75,51.7538462 C78.75,51.7538462 76.7857143,52.8246154 75.5357143,53.8953846 C74.2857143,54.7876923 70,58.5353846 70,58.5353846 C70,58.5353846 67.1428571,59.9630769 68.5714286,60.32 L68.5714286,60.32 Z" id="Shape" sketch:type="MSShapeGroup"></path>
            <path d="M64.6428571,69.2430769 L67.5,68.3507692 L73.75,66.2092308 L77.6785714,65.1384615 L80.7142857,64.4246154 C80.7142857,64.4246154 80.1785714,63.7107692 79.4642857,63.1753846 L78.5714286,62.8184615 C78.5714286,62.8184615 77.6785714,61.5692308 78.3928571,61.3907692 C79.1071429,61.2123077 79.4642857,61.2123077 80.7142857,60.6769231 C81.9642857,60.1415385 92.3214286,55.8584615 93.0357143,55.68 C93.3928571,55.5015385 94.2857143,55.1446154 95,54.7876923 L94.4642857,56.5723077 C94.4642857,56.5723077 94.2857143,57.2861538 94.8214286,57.2861538 L96.0714286,56.2153846 C96.0714286,56.2153846 96.4285714,55.3230769 96.7857143,55.1446154 C97.1428571,54.7876923 98.3928571,53.7169231 98.3928571,53.7169231 C98.3928571,53.7169231 100,53.36 99.4642857,53.0030769 C98.9285714,52.6461538 98.0357143,52.4676923 97.3214286,52.4676923 C96.6071429,52.4676923 96.7857143,52.6461538 95.8928571,52.2892308 C95,51.9323077 94.4642857,51.9323077 94.4642857,51.9323077 C94.4642857,51.9323077 93.2142857,51.2184615 93.3928571,52.1107692 C93.5714286,52.6461538 94.2857143,53.1815385 94.8214286,53.5384615 C92.3214286,54.6092308 81.0714286,59.9630769 80.5357143,60.1415385 C79.8214286,60.32 76.6071429,61.2123077 76.6071429,61.2123077 L74.8214286,62.2830769 L77.3214286,63.7107692 L76.9642857,64.7815385 C76.9642857,64.7815385 74.8214286,65.1384615 73.2142857,65.6738462 C71.7857143,66.2092308 66.4285714,68.1723077 66.4285714,68.1723077 C66.4285714,68.1723077 63.5714286,68.5292308 64.6428571,69.2430769 L64.6428571,69.2430769 Z" id="Shape" sketch:type="MSShapeGroup"></path>
        </g>
    </g>
</svg>